<svg width="251" height="34" viewBox="0 0 251 34" fill="none" xmlns="http://www.w3.org/2000/svg">
<path d="M51.3415 28.225V26.142C52.5318 28.1357 54.7934 28.5821 56.073 28.5821C59.882 28.5821 63.1256 25.3385 63.1256 20.5773C63.1256 16.0243 60.2093 12.5427 55.9242 12.5427C54.4661 12.5427 52.7996 13.0486 51.7581 14.6257V6.94823H46.5803V28.225H51.3415ZM51.6391 20.5178C51.6391 18.3752 53.0079 17.0659 54.8232 17.0659C56.5194 17.0659 57.918 18.3752 57.918 20.5178C57.918 22.6603 56.5194 24.0589 54.8232 24.0589C53.0079 24.0589 51.6391 22.6901 51.6391 20.5178Z" fill="#0D0A2C"/>
<path d="M76.1462 12.6617C75.9082 12.5724 75.5808 12.5427 75.194 12.5427C73.1704 12.5427 71.6826 13.6437 70.8791 15.5185V12.8998H65.731V28.225H70.9089V22.6008C70.9089 19.387 72.367 17.3932 74.9857 17.3932C75.5213 17.3932 75.9082 17.4527 76.1462 17.5717V12.6617Z" fill="#0D0A2C"/>
<path d="M78.1398 28.225H83.3176V12.8998H78.1398V28.225ZM77.9314 8.61466C77.9314 10.1621 79.1218 11.2929 80.6989 11.2929C82.2761 11.2929 83.4961 10.1621 83.4961 8.61466C83.4961 7.06726 82.2761 5.93646 80.6989 5.93646C79.1218 5.93646 77.9314 7.06726 77.9314 8.61466Z" fill="#0D0A2C"/>
<path d="M90.4239 20.6368L85.1568 28.225H90.9L93.3997 24.178L95.8993 28.225H101.643L96.3754 20.6368L101.762 12.8998H95.8696L93.3997 17.1551L90.9298 12.8998H85.0377L90.4239 20.6368Z" fill="#0D0A2C"/>
<path d="M107.727 15.9053H109.691V22.0354C109.691 25.6063 111.714 27.5704 115.047 27.5704C116.565 27.5704 117.725 27.243 118.529 26.8562V22.4818C117.904 22.9281 117.16 23.0472 116.535 23.0472C115.583 23.0472 114.869 22.4818 114.869 21.1724V15.9053H118.112V11.888H114.869V7.75168H109.84V11.888H107.727V15.9053Z" fill="#4A3AFF"/>
<path d="M134.447 20.7856C134.596 20.3095 134.745 19.387 134.745 18.5835C134.745 14.3877 131.769 11.5309 127.395 11.5309C122.871 11.5309 119.419 15.0423 119.419 19.5655C119.419 24.0887 122.782 27.5704 128.019 27.5704C130.608 27.5704 132.632 26.9157 134.655 25.1005L132.037 21.8271C131.293 22.5413 130.073 23.2555 128.406 23.2555C126.651 23.2555 124.984 22.5115 124.746 20.7856H134.447ZM127.276 15.6375C128.615 15.6375 129.656 16.4707 129.745 17.78V17.8098H124.657C124.746 16.4112 125.936 15.6375 127.276 15.6375Z" fill="#4A3AFF"/>
<path d="M137.29 11.888V27.2133H142.468V19.1489C142.468 17.2444 143.45 16.0541 144.908 16.0541C146.455 16.0541 147.288 17.0063 147.288 18.7918V27.2133H152.466V19.1489C152.466 17.2444 153.508 16.0541 154.906 16.0541C156.454 16.0541 157.287 17.0063 157.287 18.7918V27.2133H162.465V17.8693C162.465 13.9115 160.263 11.5309 156.543 11.5309C153.954 11.5309 152.555 12.6915 151.514 14.0306C150.472 12.3939 148.806 11.5309 146.544 11.5309C144.729 11.5309 143.271 12.1558 142.229 13.7032V11.888H137.29Z" fill="#4A3AFF"/>
<path d="M165.972 33.1648H171.15V25.7254C172.132 27.1537 173.858 27.5704 175.316 27.5704C179.601 27.5704 182.518 24.0887 182.518 19.5358C182.518 14.7745 179.185 11.5309 175.376 11.5309C174.126 11.5309 172.013 11.9773 170.733 13.9711V11.888H165.972V33.1648ZM171.031 19.5953C171.031 17.423 172.4 16.0541 174.215 16.0541C175.911 16.0541 177.31 17.4527 177.31 19.5953C177.31 21.7378 175.911 23.0472 174.215 23.0472C172.4 23.0472 171.031 21.7378 171.031 19.5953Z" fill="#4A3AFF"/>
<path d="M184.944 22.6306C184.944 25.8444 186.789 27.5704 190.003 27.5704C191.045 27.5704 191.848 27.3918 192.414 27.124V22.9579C192.027 23.1067 191.67 23.1364 191.402 23.1364C190.212 23.1364 190.122 22.3925 190.122 21.6783V5.93646H184.944V22.6306Z" fill="#4A3AFF"/>
<path d="M198.815 27.5704C200.839 27.5704 202.178 26.6776 202.773 25.5171V27.2133H207.564V17.6313C207.564 13.8223 204.945 11.5309 200.511 11.5309C197.506 11.5309 195.036 12.8403 193.727 14.5067L196.435 17.7503C197.238 16.8278 198.488 15.9351 200.244 15.9351C201.523 15.9351 202.624 16.3814 202.624 17.661V17.6908L198.666 18.4645C195.453 19.1489 193.667 20.6963 193.667 22.9579C193.667 25.6659 195.839 27.5704 198.815 27.5704ZM202.624 20.8153V21.0534C202.624 22.7496 201.672 23.8506 200.035 23.8506C199.113 23.8506 198.607 23.3745 198.607 22.6306C198.607 21.8866 199.202 21.4998 200.125 21.2915L202.624 20.8153Z" fill="#4A3AFF"/>
<path d="M209.409 15.9053H211.373V22.0354C211.373 25.6063 213.396 27.5704 216.729 27.5704C218.247 27.5704 219.407 27.243 220.211 26.8562V22.4818C219.586 22.9281 218.842 23.0472 218.217 23.0472C217.265 23.0472 216.551 22.4818 216.551 21.1724V15.9053H219.794V11.888H216.551V7.75168H211.522V11.888H209.409V15.9053Z" fill="#4A3AFF"/>
<path d="M236.129 20.7856C236.278 20.3095 236.427 19.387 236.427 18.5835C236.427 14.3877 233.451 11.5309 229.077 11.5309C224.553 11.5309 221.101 15.0423 221.101 19.5655C221.101 24.0887 224.464 27.5704 229.701 27.5704C232.29 27.5704 234.314 26.9157 236.337 25.1005L233.719 21.8271C232.975 22.5413 231.755 23.2555 230.088 23.2555C228.333 23.2555 226.666 22.5115 226.428 20.7856H236.129ZM228.958 15.6375C230.297 15.6375 231.338 16.4707 231.427 17.78V17.8098H226.339C226.428 16.4112 227.618 15.6375 228.958 15.6375Z" fill="#4A3AFF"/>
<path d="M244.269 27.5704C248.078 27.5704 250.637 25.4575 250.637 22.7198C250.637 19.6845 248.286 18.8811 245.875 17.9288C243.703 17.0063 242.781 16.8576 242.781 16.2922C242.781 15.7268 243.465 15.3994 244.269 15.3994C245.697 15.3994 246.5 16.0839 247.006 16.9468L250.22 14.6257C249.268 12.8105 247.036 11.5309 244.417 11.5309C240.965 11.5309 238.079 13.1974 238.079 16.2624C238.079 18.7323 239.775 19.9524 242.781 21.0236C244.893 21.7676 245.935 22.0354 245.935 22.8389C245.935 23.4043 245.37 23.7018 244.328 23.7018C242.781 23.7018 241.59 22.7496 240.876 21.5295L237.573 24.0589C238.853 26.3205 241.412 27.5704 244.269 27.5704Z" fill="#4A3AFF"/>
<path fill-rule="evenodd" clip-rule="evenodd" d="M28.2351 10.1893C30.7847 10.1893 32.8515 8.12248 32.8515 5.57293C32.8515 3.02337 30.7847 0.956543 28.2351 0.956543C25.6855 0.956543 23.6187 3.02337 23.6187 5.57293C23.6187 8.12248 25.6855 10.1893 28.2351 10.1893Z" fill="#8055FA"/>
<path fill-rule="evenodd" clip-rule="evenodd" d="M28.2352 22.2129C30.7848 22.2129 32.8516 20.05 32.8516 17.3818C32.8516 14.7137 30.7848 12.5507 28.2352 12.5507C25.6857 12.5507 23.6188 14.7137 23.6188 17.3818C23.6188 20.05 25.6857 22.2129 28.2352 22.2129Z" fill="#7550FB"/>
<path fill-rule="evenodd" clip-rule="evenodd" d="M28.2352 33.8078C30.7848 33.8078 32.8516 31.741 32.8516 29.1914C32.8516 26.6418 30.7848 24.575 28.2352 24.575C25.6857 24.575 23.6188 26.6418 23.6188 29.1914C23.6188 31.741 25.6857 33.8078 28.2352 33.8078Z" fill="#6A4AFC"/>
<path fill-rule="evenodd" clip-rule="evenodd" d="M16.4258 22.2128C19.0939 22.2128 21.2569 20.0498 21.2569 17.3817C21.2569 14.7136 19.0939 12.5506 16.4258 12.5506C13.7576 12.5506 11.5947 14.7136 11.5947 17.3817C11.5947 20.0498 13.7576 22.2128 16.4258 22.2128Z" fill="#6045FD"/>
<path fill-rule="evenodd" clip-rule="evenodd" d="M16.4258 33.8074C19.0939 33.8074 21.2569 31.7406 21.2569 29.191C21.2569 26.6415 19.0939 24.5746 16.4258 24.5746C13.7576 24.5746 11.5947 26.6415 11.5947 29.191C11.5947 31.7406 13.7576 33.8074 16.4258 33.8074Z" fill="#553FFE"/>
<path fill-rule="evenodd" clip-rule="evenodd" d="M4.61638 33.8077C7.16594 33.8077 9.23277 31.7408 9.23277 29.1913C9.23277 26.6417 7.16594 24.5749 4.61638 24.5749C2.06683 24.5749 0 26.6417 0 29.1913C0 31.7408 2.06683 33.8077 4.61638 33.8077Z" fill="#4A3AFF"/>
</svg>
